<mxfile host="Electron" modified="2023-05-03T13:28:12.342Z" agent="Mozilla/5.0 (Windows NT 10.0; Win64; x64) AppleWebKit/537.36 (KHTML, like Gecko) draw.io/21.2.1 Chrome/112.0.5615.87 Electron/24.1.2 Safari/537.36" etag="XpjqsUmiOlS6TGahdJLp" version="21.2.1" type="device">
  <diagram name="Страница 1" id="8rzw21bh1gVDti791DJW">
    <mxGraphModel dx="1400" dy="1183" grid="1" gridSize="10" guides="1" tooltips="1" connect="1" arrows="1" fold="1" page="1" pageScale="1" pageWidth="827" pageHeight="1169" math="0" shadow="0">
      <root>
        <mxCell id="0" />
        <mxCell id="1" parent="0" />
        <mxCell id="vVrufQbEo-oYVsq8ebWe-1" value="&lt;div style=&quot;font-family: Consolas, &amp;quot;Courier New&amp;quot;, monospace; font-size: 22px; line-height: 22px;&quot;&gt;&lt;div style=&quot;font-size: 22px;&quot;&gt;метод выборки из данных&amp;nbsp;&amp;lt;=3&amp;nbsp;&lt;span style=&quot;background-color: initial;&quot;&gt;значений&lt;/span&gt;&lt;span style=&quot;background-color: initial;&quot;&gt;&amp;nbsp;и их записи в новый массив&lt;/span&gt;&lt;/div&gt;&lt;/div&gt;" style="text;whiteSpace=wrap;html=1;align=center;fontSize=22;fontStyle=1" vertex="1" parent="1">
          <mxGeometry x="60" width="890" height="70" as="geometry" />
        </mxCell>
        <mxCell id="vVrufQbEo-oYVsq8ebWe-4" value="" style="edgeStyle=orthogonalEdgeStyle;rounded=0;orthogonalLoop=1;jettySize=auto;html=1;labelBackgroundColor=none;shadow=1;strokeWidth=2;fontSize=17;fontStyle=1" edge="1" parent="1" source="vVrufQbEo-oYVsq8ebWe-2" target="vVrufQbEo-oYVsq8ebWe-3">
          <mxGeometry relative="1" as="geometry" />
        </mxCell>
        <mxCell id="vVrufQbEo-oYVsq8ebWe-2" value="&lt;span style=&quot;border-color: rgb(0, 0, 0); font-family: Consolas, &amp;quot;Courier New&amp;quot;, monospace; font-size: 17px; font-style: normal; font-variant-ligatures: normal; font-variant-caps: normal; letter-spacing: normal; orphans: 2; text-align: left; text-indent: 0px; text-transform: none; widows: 2; word-spacing: 0px; -webkit-text-stroke-width: 0px; text-decoration-thickness: initial; text-decoration-style: initial; text-decoration-color: initial;&quot;&gt;string&lt;/span&gt;&lt;span style=&quot;border-color: rgb(0, 0, 0); font-family: Consolas, &amp;quot;Courier New&amp;quot;, monospace; font-size: 17px; font-style: normal; font-variant-ligatures: normal; font-variant-caps: normal; letter-spacing: normal; orphans: 2; text-align: left; text-indent: 0px; text-transform: none; widows: 2; word-spacing: 0px; -webkit-text-stroke-width: 0px; text-decoration-thickness: initial; text-decoration-style: initial; text-decoration-color: initial;&quot;&gt;[]&lt;span style=&quot;font-size: 17px;&quot;&gt;&amp;nbsp;&lt;/span&gt;&lt;/span&gt;&lt;span style=&quot;border-color: rgb(0, 0, 0); font-family: Consolas, &amp;quot;Courier New&amp;quot;, monospace; font-size: 17px; font-style: normal; font-variant-ligatures: normal; font-variant-caps: normal; letter-spacing: normal; orphans: 2; text-align: left; text-indent: 0px; text-transform: none; widows: 2; word-spacing: 0px; -webkit-text-stroke-width: 0px; text-decoration-thickness: initial; text-decoration-style: initial; text-decoration-color: initial;&quot;&gt;stringArray&lt;br style=&quot;font-size: 17px;&quot;&gt;&lt;/span&gt;&lt;div style=&quot;font-family: Consolas, &amp;quot;Courier New&amp;quot;, monospace; font-size: 17px; line-height: 22px;&quot;&gt;int n = 0;&lt;/div&gt;" style="shape=parallelogram;perimeter=parallelogramPerimeter;whiteSpace=wrap;html=1;fixedSize=1;shadow=1;strokeWidth=2;fontSize=17;fontStyle=1" vertex="1" parent="1">
          <mxGeometry x="260" y="200" width="270" height="60" as="geometry" />
        </mxCell>
        <mxCell id="vVrufQbEo-oYVsq8ebWe-10" value="" style="edgeStyle=orthogonalEdgeStyle;rounded=0;orthogonalLoop=1;jettySize=auto;html=1;labelBackgroundColor=none;fontColor=#000000;shadow=1;strokeWidth=2;fontSize=17;fontStyle=1" edge="1" parent="1" source="vVrufQbEo-oYVsq8ebWe-3" target="vVrufQbEo-oYVsq8ebWe-5">
          <mxGeometry relative="1" as="geometry" />
        </mxCell>
        <mxCell id="vVrufQbEo-oYVsq8ebWe-38" value="" style="edgeStyle=orthogonalEdgeStyle;rounded=0;orthogonalLoop=1;jettySize=auto;html=1;labelBackgroundColor=none;fontColor=#000000;shadow=1;strokeWidth=2;fontSize=17;fontStyle=1;" edge="1" parent="1" source="vVrufQbEo-oYVsq8ebWe-3" target="vVrufQbEo-oYVsq8ebWe-23">
          <mxGeometry relative="1" as="geometry" />
        </mxCell>
        <mxCell id="vVrufQbEo-oYVsq8ebWe-3" value="&lt;br style=&quot;font-size: 17px;&quot;&gt;&lt;div style=&quot;font-family: Consolas, &amp;quot;Courier New&amp;quot;, monospace; font-size: 17px; line-height: 22px;&quot;&gt;&lt;div style=&quot;font-size: 17px;&quot;&gt;for (int i = 0; &lt;br style=&quot;font-size: 17px;&quot;&gt;i &amp;lt; stringArray.Length;&lt;br style=&quot;font-size: 17px;&quot;&gt;i++)&lt;/div&gt;&lt;/div&gt;" style="shape=hexagon;perimeter=hexagonPerimeter2;whiteSpace=wrap;html=1;fixedSize=1;labelBackgroundColor=none;fontColor=#000000;shadow=1;strokeWidth=2;fontSize=17;fontStyle=1" vertex="1" parent="1">
          <mxGeometry x="270" y="330" width="250" height="140" as="geometry" />
        </mxCell>
        <mxCell id="vVrufQbEo-oYVsq8ebWe-40" value="yes" style="edgeStyle=orthogonalEdgeStyle;rounded=0;orthogonalLoop=1;jettySize=auto;html=1;entryX=0.5;entryY=1;entryDx=0;entryDy=0;labelBackgroundColor=none;shadow=1;strokeWidth=2;fontSize=17;fontStyle=1" edge="1" parent="1" source="vVrufQbEo-oYVsq8ebWe-5" target="vVrufQbEo-oYVsq8ebWe-35">
          <mxGeometry relative="1" as="geometry">
            <Array as="points">
              <mxPoint x="395" y="680" />
              <mxPoint x="110" y="680" />
            </Array>
          </mxGeometry>
        </mxCell>
        <mxCell id="vVrufQbEo-oYVsq8ebWe-46" value="no" style="edgeStyle=orthogonalEdgeStyle;rounded=0;orthogonalLoop=1;jettySize=auto;html=1;labelBackgroundColor=none;shadow=1;strokeWidth=2;fontSize=17;fontStyle=1" edge="1" parent="1" source="vVrufQbEo-oYVsq8ebWe-5">
          <mxGeometry relative="1" as="geometry">
            <mxPoint x="260" y="400" as="targetPoint" />
            <Array as="points">
              <mxPoint x="200" y="400" />
            </Array>
          </mxGeometry>
        </mxCell>
        <mxCell id="vVrufQbEo-oYVsq8ebWe-5" value="&lt;span style=&quot;font-family: Consolas, &amp;quot;Courier New&amp;quot;, monospace; font-size: 17px;&quot;&gt;if&lt;/span&gt;&lt;span style=&quot;font-family: Consolas, &amp;quot;Courier New&amp;quot;, monospace; font-size: 17px;&quot;&gt; (&lt;/span&gt;&lt;span style=&quot;font-family: Consolas, &amp;quot;Courier New&amp;quot;, monospace; font-size: 17px;&quot;&gt;stringArray&lt;/span&gt;&lt;span style=&quot;font-family: Consolas, &amp;quot;Courier New&amp;quot;, monospace; font-size: 17px;&quot;&gt;[&lt;/span&gt;&lt;span style=&quot;font-family: Consolas, &amp;quot;Courier New&amp;quot;, monospace; font-size: 17px;&quot;&gt;i&lt;/span&gt;&lt;span style=&quot;font-family: Consolas, &amp;quot;Courier New&amp;quot;, monospace; font-size: 17px;&quot;&gt;]&lt;/span&gt;&lt;span style=&quot;font-family: Consolas, &amp;quot;Courier New&amp;quot;, monospace; font-size: 17px;&quot;&gt;.&lt;/span&gt;&lt;span style=&quot;font-family: Consolas, &amp;quot;Courier New&amp;quot;, monospace; font-size: 17px;&quot;&gt;Length&lt;/span&gt;&lt;span style=&quot;font-family: Consolas, &amp;quot;Courier New&amp;quot;, monospace; font-size: 17px;&quot;&gt; &lt;/span&gt;&lt;span style=&quot;font-family: Consolas, &amp;quot;Courier New&amp;quot;, monospace; font-size: 17px;&quot;&gt;&amp;lt;=&lt;/span&gt;&lt;span style=&quot;font-family: Consolas, &amp;quot;Courier New&amp;quot;, monospace; font-size: 17px;&quot;&gt; &lt;/span&gt;&lt;span style=&quot;font-family: Consolas, &amp;quot;Courier New&amp;quot;, monospace; font-size: 17px;&quot;&gt;3&lt;/span&gt;&lt;span style=&quot;font-family: Consolas, &amp;quot;Courier New&amp;quot;, monospace; font-size: 17px;&quot;&gt;)&lt;/span&gt;" style="rhombus;whiteSpace=wrap;html=1;labelBackgroundColor=none;shadow=1;strokeWidth=2;fontSize=17;fontStyle=1" vertex="1" parent="1">
          <mxGeometry x="200" y="520" width="390" height="120" as="geometry" />
        </mxCell>
        <mxCell id="vVrufQbEo-oYVsq8ebWe-53" style="edgeStyle=orthogonalEdgeStyle;rounded=0;orthogonalLoop=1;jettySize=auto;html=1;labelBackgroundColor=none;fontColor=#000000;shadow=1;strokeWidth=2;fontSize=17;fontStyle=1" edge="1" parent="1" source="vVrufQbEo-oYVsq8ebWe-6">
          <mxGeometry relative="1" as="geometry">
            <mxPoint x="810" y="580" as="targetPoint" />
            <Array as="points">
              <mxPoint x="670" y="920" />
              <mxPoint x="670" y="580" />
            </Array>
          </mxGeometry>
        </mxCell>
        <mxCell id="vVrufQbEo-oYVsq8ebWe-6" value="&#xa;&lt;div style=&quot;font-family: Consolas, &amp;quot;Courier New&amp;quot;, monospace; font-size: 17px; line-height: 22px;&quot;&gt;&lt;div style=&quot;font-size: 17px;&quot;&gt;&lt;span style=&quot;font-size: 17px;&quot;&gt;result&lt;/span&gt;&lt;span style=&quot;font-size: 17px;&quot;&gt;[&lt;/span&gt;&lt;span style=&quot;font-size: 17px;&quot;&gt;j&lt;/span&gt;&lt;span style=&quot;font-size: 17px;&quot;&gt;] &lt;/span&gt;&lt;span style=&quot;font-size: 17px;&quot;&gt;=&lt;/span&gt;&lt;span style=&quot;font-size: 17px;&quot;&gt; &lt;/span&gt;&lt;span style=&quot;font-size: 17px;&quot;&gt;stringArray&lt;/span&gt;&lt;span style=&quot;font-size: 17px;&quot;&gt;[&lt;/span&gt;&lt;span style=&quot;font-size: 17px;&quot;&gt;i&lt;/span&gt;&lt;span style=&quot;font-size: 17px;&quot;&gt;];&lt;/span&gt;&lt;/div&gt;&lt;div style=&quot;font-size: 17px;&quot;&gt;&lt;span style=&quot;font-size: 17px;&quot;&gt;&amp;nbsp; &amp;nbsp; &amp;nbsp; &lt;/span&gt;&lt;span style=&quot;font-size: 17px;&quot;&gt;j&lt;/span&gt;&lt;span style=&quot;font-size: 17px;&quot;&gt;++&lt;/span&gt;&lt;span style=&quot;font-size: 17px;&quot;&gt;;&lt;/span&gt;&lt;/div&gt;&lt;/div&gt;&#xa;&#xa;" style="rounded=0;whiteSpace=wrap;html=1;labelBackgroundColor=none;fontColor=#000000;shadow=1;strokeWidth=2;fontSize=17;fontStyle=1" vertex="1" parent="1">
          <mxGeometry x="815" y="890" width="260" height="60" as="geometry" />
        </mxCell>
        <mxCell id="vVrufQbEo-oYVsq8ebWe-39" value="" style="edgeStyle=orthogonalEdgeStyle;rounded=0;orthogonalLoop=1;jettySize=auto;html=1;labelBackgroundColor=none;fontColor=#000000;shadow=1;strokeWidth=2;fontSize=17;fontStyle=1" edge="1" parent="1" source="vVrufQbEo-oYVsq8ebWe-23" target="vVrufQbEo-oYVsq8ebWe-25">
          <mxGeometry relative="1" as="geometry" />
        </mxCell>
        <mxCell id="vVrufQbEo-oYVsq8ebWe-23" value="&lt;br style=&quot;font-size: 17px;&quot;&gt;&lt;div style=&quot;font-family: Consolas, &amp;quot;Courier New&amp;quot;, monospace; font-size: 17px; line-height: 22px;&quot;&gt;&lt;div style=&quot;font-size: 17px;&quot;&gt;&lt;span style=&quot;font-size: 17px;&quot;&gt;string&lt;/span&gt;&lt;span style=&quot;font-size: 17px;&quot;&gt;[] &lt;/span&gt;&lt;span style=&quot;font-size: 17px;&quot;&gt;result&lt;/span&gt;&lt;span style=&quot;font-size: 17px;&quot;&gt; &lt;/span&gt;&lt;span style=&quot;font-size: 17px;&quot;&gt;=&lt;/span&gt;&lt;span style=&quot;font-size: 17px;&quot;&gt; &lt;/span&gt;&lt;span style=&quot;font-size: 17px;&quot;&gt;new&lt;/span&gt;&lt;span style=&quot;font-size: 17px;&quot;&gt; &lt;/span&gt;&lt;span style=&quot;font-size: 17px;&quot;&gt;string&lt;/span&gt;&lt;span style=&quot;font-size: 17px;&quot;&gt;[&lt;/span&gt;&lt;span style=&quot;font-size: 17px;&quot;&gt;n&lt;/span&gt;&lt;span style=&quot;font-size: 17px;&quot;&gt;];&lt;/span&gt;&lt;/div&gt;&lt;div style=&quot;font-size: 17px;&quot;&gt;&lt;span style=&quot;font-size: 17px;&quot;&gt;&amp;nbsp; &lt;/span&gt;&lt;span style=&quot;font-size: 17px;&quot;&gt;int&lt;/span&gt;&lt;span style=&quot;font-size: 17px;&quot;&gt; &lt;/span&gt;&lt;span style=&quot;font-size: 17px;&quot;&gt;j&lt;/span&gt;&lt;span style=&quot;font-size: 17px;&quot;&gt; &lt;/span&gt;&lt;span style=&quot;font-size: 17px;&quot;&gt;=&lt;/span&gt;&lt;span style=&quot;font-size: 17px;&quot;&gt; &lt;/span&gt;&lt;span style=&quot;font-size: 17px;&quot;&gt;0&lt;/span&gt;&lt;span style=&quot;font-size: 17px;&quot;&gt;;&lt;/span&gt;&lt;/div&gt;&lt;/div&gt;&lt;br style=&quot;font-size: 17px;&quot;&gt;" style="shape=parallelogram;perimeter=parallelogramPerimeter;whiteSpace=wrap;html=1;fixedSize=1;labelBackgroundColor=none;fontColor=#000000;shadow=1;strokeWidth=2;fontSize=17;fontStyle=1;rounded=0;" vertex="1" parent="1">
          <mxGeometry x="770" y="370" width="345" height="60" as="geometry" />
        </mxCell>
        <mxCell id="vVrufQbEo-oYVsq8ebWe-47" value="" style="edgeStyle=orthogonalEdgeStyle;rounded=0;orthogonalLoop=1;jettySize=auto;html=1;labelBackgroundColor=none;fontColor=#000000;shadow=1;strokeWidth=2;fontSize=17;fontStyle=1" edge="1" parent="1" source="vVrufQbEo-oYVsq8ebWe-25">
          <mxGeometry relative="1" as="geometry">
            <mxPoint x="942.5" y="720" as="targetPoint" />
          </mxGeometry>
        </mxCell>
        <mxCell id="vVrufQbEo-oYVsq8ebWe-54" value="" style="edgeStyle=orthogonalEdgeStyle;rounded=0;orthogonalLoop=1;jettySize=auto;html=1;labelBackgroundColor=none;fontColor=#000000;shadow=1;strokeWidth=2;fontSize=17;fontStyle=1" edge="1" parent="1" source="vVrufQbEo-oYVsq8ebWe-25" target="vVrufQbEo-oYVsq8ebWe-28">
          <mxGeometry relative="1" as="geometry" />
        </mxCell>
        <mxCell id="vVrufQbEo-oYVsq8ebWe-25" value="&lt;br style=&quot;font-size: 17px;&quot;&gt;&lt;div style=&quot;font-family: Consolas, &amp;quot;Courier New&amp;quot;, monospace; font-size: 17px; line-height: 22px;&quot;&gt;&lt;div style=&quot;font-size: 17px;&quot;&gt;&lt;span style=&quot;font-size: 17px;&quot;&gt;for&lt;/span&gt;&lt;span style=&quot;font-size: 17px;&quot;&gt; (&lt;/span&gt;&lt;span style=&quot;font-size: 17px;&quot;&gt;int&lt;/span&gt;&lt;span style=&quot;font-size: 17px;&quot;&gt; &lt;/span&gt;&lt;span style=&quot;font-size: 17px;&quot;&gt;i&lt;/span&gt;&lt;span style=&quot;font-size: 17px;&quot;&gt; &lt;/span&gt;&lt;span style=&quot;font-size: 17px;&quot;&gt;=&lt;/span&gt;&lt;span style=&quot;font-size: 17px;&quot;&gt; &lt;/span&gt;&lt;span style=&quot;font-size: 17px;&quot;&gt;0&lt;/span&gt;&lt;span style=&quot;font-size: 17px;&quot;&gt;; &lt;br style=&quot;font-size: 17px;&quot;&gt;&lt;/span&gt;&lt;span style=&quot;font-size: 17px;&quot;&gt;i&lt;/span&gt;&lt;span style=&quot;font-size: 17px;&quot;&gt; &lt;/span&gt;&lt;span style=&quot;font-size: 17px;&quot;&gt;&amp;lt;&lt;/span&gt;&lt;span style=&quot;font-size: 17px;&quot;&gt; &lt;/span&gt;&lt;span style=&quot;font-size: 17px;&quot;&gt;stringArray&lt;/span&gt;&lt;span style=&quot;font-size: 17px;&quot;&gt;.&lt;/span&gt;&lt;span style=&quot;font-size: 17px;&quot;&gt;Length&lt;/span&gt;&lt;span style=&quot;font-size: 17px;&quot;&gt;; &lt;br style=&quot;font-size: 17px;&quot;&gt;&lt;/span&gt;&lt;span style=&quot;font-size: 17px;&quot;&gt;i&lt;/span&gt;&lt;span style=&quot;font-size: 17px;&quot;&gt;++&lt;/span&gt;&lt;span style=&quot;font-size: 17px;&quot;&gt;)&lt;/span&gt;&lt;/div&gt;&lt;/div&gt;&lt;br style=&quot;font-size: 17px;&quot;&gt;" style="shape=hexagon;perimeter=hexagonPerimeter2;whiteSpace=wrap;html=1;fixedSize=1;labelBackgroundColor=none;fontColor=#000000;shadow=1;strokeWidth=2;fontSize=17;fontStyle=1" vertex="1" parent="1">
          <mxGeometry x="817.5" y="505" width="250" height="150" as="geometry" />
        </mxCell>
        <mxCell id="vVrufQbEo-oYVsq8ebWe-48" value="no" style="edgeStyle=orthogonalEdgeStyle;rounded=0;orthogonalLoop=1;jettySize=auto;html=1;entryX=0;entryY=0.5;entryDx=0;entryDy=0;labelBackgroundColor=none;fontColor=#000000;shadow=1;strokeWidth=2;fontSize=17;fontStyle=1;" edge="1" parent="1" source="vVrufQbEo-oYVsq8ebWe-27" target="vVrufQbEo-oYVsq8ebWe-25">
          <mxGeometry relative="1" as="geometry">
            <Array as="points">
              <mxPoint x="760" y="580" />
            </Array>
          </mxGeometry>
        </mxCell>
        <mxCell id="vVrufQbEo-oYVsq8ebWe-49" value="yes" style="edgeStyle=orthogonalEdgeStyle;rounded=0;orthogonalLoop=1;jettySize=auto;html=1;labelBackgroundColor=none;fontColor=#000000;shadow=1;strokeWidth=2;fontSize=17;fontStyle=1" edge="1" parent="1" source="vVrufQbEo-oYVsq8ebWe-27" target="vVrufQbEo-oYVsq8ebWe-6">
          <mxGeometry relative="1" as="geometry" />
        </mxCell>
        <mxCell id="vVrufQbEo-oYVsq8ebWe-27" value="&lt;span style=&quot;font-family: Consolas, &amp;quot;Courier New&amp;quot;, monospace; font-size: 17px;&quot;&gt;if&lt;/span&gt;&lt;span style=&quot;font-family: Consolas, &amp;quot;Courier New&amp;quot;, monospace; font-size: 17px;&quot;&gt; (&lt;/span&gt;&lt;span style=&quot;font-family: Consolas, &amp;quot;Courier New&amp;quot;, monospace; font-size: 17px;&quot;&gt;stringArray&lt;/span&gt;&lt;span style=&quot;font-family: Consolas, &amp;quot;Courier New&amp;quot;, monospace; font-size: 17px;&quot;&gt;[&lt;/span&gt;&lt;span style=&quot;font-family: Consolas, &amp;quot;Courier New&amp;quot;, monospace; font-size: 17px;&quot;&gt;i&lt;/span&gt;&lt;span style=&quot;font-family: Consolas, &amp;quot;Courier New&amp;quot;, monospace; font-size: 17px;&quot;&gt;]&lt;/span&gt;&lt;span style=&quot;font-family: Consolas, &amp;quot;Courier New&amp;quot;, monospace; font-size: 17px;&quot;&gt;.&lt;/span&gt;&lt;span style=&quot;font-family: Consolas, &amp;quot;Courier New&amp;quot;, monospace; font-size: 17px;&quot;&gt;Length&lt;/span&gt;&lt;span style=&quot;font-family: Consolas, &amp;quot;Courier New&amp;quot;, monospace; font-size: 17px;&quot;&gt; &lt;/span&gt;&lt;span style=&quot;font-family: Consolas, &amp;quot;Courier New&amp;quot;, monospace; font-size: 17px;&quot;&gt;&amp;lt;=&lt;/span&gt;&lt;span style=&quot;font-family: Consolas, &amp;quot;Courier New&amp;quot;, monospace; font-size: 17px;&quot;&gt; &lt;/span&gt;&lt;span style=&quot;font-family: Consolas, &amp;quot;Courier New&amp;quot;, monospace; font-size: 17px;&quot;&gt;3&lt;/span&gt;&lt;span style=&quot;font-family: Consolas, &amp;quot;Courier New&amp;quot;, monospace; font-size: 17px;&quot;&gt;)&lt;/span&gt;&lt;br style=&quot;font-size: 17px;&quot;&gt;" style="rhombus;whiteSpace=wrap;html=1;labelBackgroundColor=none;fontColor=#000000;shadow=1;strokeWidth=2;fontSize=17;fontStyle=1" vertex="1" parent="1">
          <mxGeometry x="760" y="720" width="370" height="100" as="geometry" />
        </mxCell>
        <mxCell id="vVrufQbEo-oYVsq8ebWe-28" value="&lt;br&gt;&lt;div style=&quot;font-family: Consolas, &amp;quot;Courier New&amp;quot;, monospace; font-size: 17px; line-height: 22px;&quot;&gt;&lt;div style=&quot;font-size: 17px;&quot;&gt;&lt;span style=&quot;font-size: 17px;&quot;&gt;return&lt;/span&gt;&lt;span style=&quot;font-size: 17px;&quot;&gt; &lt;/span&gt;&lt;span style=&quot;font-size: 17px;&quot;&gt;result;&lt;/span&gt;&lt;/div&gt;&lt;/div&gt;&lt;br&gt;" style="rounded=1;whiteSpace=wrap;html=1;labelBackgroundColor=none;fontColor=#000000;shadow=1;strokeWidth=2;fontSize=17;fontStyle=1;glass=0;" vertex="1" parent="1">
          <mxGeometry x="1181" y="550" width="120" height="60" as="geometry" />
        </mxCell>
        <mxCell id="vVrufQbEo-oYVsq8ebWe-37" value="" style="edgeStyle=orthogonalEdgeStyle;rounded=0;orthogonalLoop=1;jettySize=auto;html=1;labelBackgroundColor=none;shadow=1;strokeWidth=2;fontSize=17;fontStyle=1" edge="1" parent="1" source="vVrufQbEo-oYVsq8ebWe-35" target="vVrufQbEo-oYVsq8ebWe-3">
          <mxGeometry relative="1" as="geometry" />
        </mxCell>
        <mxCell id="vVrufQbEo-oYVsq8ebWe-35" value="&lt;span style=&quot;border-color: var(--border-color); font-style: normal; font-variant-ligatures: normal; font-variant-caps: normal; letter-spacing: normal; orphans: 2; text-align: center; text-indent: 0px; text-transform: none; widows: 2; word-spacing: 0px; -webkit-text-stroke-width: 0px; text-decoration-thickness: initial; text-decoration-style: initial; text-decoration-color: initial; font-family: Consolas, &amp;quot;Courier New&amp;quot;, monospace; font-size: 17px;&quot;&gt;n&lt;/span&gt;&lt;span style=&quot;border-color: var(--border-color); font-style: normal; font-variant-ligatures: normal; font-variant-caps: normal; letter-spacing: normal; orphans: 2; text-align: center; text-indent: 0px; text-transform: none; widows: 2; word-spacing: 0px; -webkit-text-stroke-width: 0px; text-decoration-thickness: initial; text-decoration-style: initial; text-decoration-color: initial; font-family: Consolas, &amp;quot;Courier New&amp;quot;, monospace; font-size: 17px;&quot;&gt;++;&lt;/span&gt;" style="rounded=0;whiteSpace=wrap;html=1;shadow=1;strokeWidth=2;fontSize=17;fontStyle=1" vertex="1" parent="1">
          <mxGeometry x="50" y="370" width="120" height="60" as="geometry" />
        </mxCell>
        <mxCell id="vVrufQbEo-oYVsq8ebWe-56" value="" style="edgeStyle=orthogonalEdgeStyle;rounded=0;orthogonalLoop=1;jettySize=auto;html=1;shadow=1;strokeWidth=2;fontSize=17;fontStyle=1" edge="1" parent="1" source="vVrufQbEo-oYVsq8ebWe-55" target="vVrufQbEo-oYVsq8ebWe-2">
          <mxGeometry relative="1" as="geometry" />
        </mxCell>
        <mxCell id="vVrufQbEo-oYVsq8ebWe-55" value="&#xa;&lt;div style=&quot;font-family: Consolas, &amp;quot;Courier New&amp;quot;, monospace; font-size: 17px; line-height: 22px;&quot;&gt;&lt;div style=&quot;font-size: 17px;&quot;&gt;&lt;span style=&quot;font-size: 17px;&quot;&gt;string&lt;/span&gt;&lt;span style=&quot;font-size: 17px;&quot;&gt;[] &lt;/span&gt;&lt;span style=&quot;font-size: 17px;&quot;&gt;data&lt;/span&gt;&lt;span style=&quot;font-size: 17px;&quot;&gt;(&lt;/span&gt;&lt;span style=&quot;font-size: 17px;&quot;&gt;string&lt;/span&gt;&lt;span style=&quot;font-size: 17px;&quot;&gt;[] &lt;/span&gt;&lt;span style=&quot;font-size: 17px;&quot;&gt;stringArray&lt;/span&gt;&lt;span style=&quot;font-size: 17px;&quot;&gt;) &lt;/span&gt;&lt;/div&gt;&lt;/div&gt;&#xa;&#xa;" style="rounded=1;whiteSpace=wrap;html=1;labelBackgroundColor=none;fontColor=default;shadow=1;fontSize=17;fontStyle=1;strokeWidth=2;glass=0;" vertex="1" parent="1">
          <mxGeometry x="205" y="70" width="380" height="60" as="geometry" />
        </mxCell>
      </root>
    </mxGraphModel>
  </diagram>
</mxfile>
